# xmcd
# 
# Track frame offsets:
#     150
#     7396
#     22309
#     35294
#     44733
#     52380
#     61789
#     72054
#     83310
#     95446
#     105062
#     113544
# 
# Disc length: 1725
# 
# Revision: 3
# Processed by: cddbd v1.5.2PL0 Copyright (c) Steve Scherf et al.
# Submitted via: BonkEnc v1.0.15
# 
DISCID=9506bb0c
DTITLE=Τάνια Τσανακλίδου - Άρες μάρες κουκουνάρες
DYEAR=2010
DGENRE=Children's
TTITLE0=Ο πειρατής
TTITLE1=Ζωγραφική
TTITLE2=Το κουνούπι
TTITLE3=Το φεγγάρι
TTITLE4=Λαϊκή αγορά
TTITLE5=Ο τραλαλάς
TTITLE6=Γεωγραφία
TTITLE7=Η Κατερίνα
TTITLE8=Τ' όνειρο του γέρου
TTITLE9=Γυμναστική
TTITLE10=Τι'ναι το τραγούδι
TTITLE11=Τα στρατιωτάκια
EXTD=
EXTT0=
EXTT1=
EXTT2=
EXTT3=
EXTT4=
EXTT5=
EXTT6=
EXTT7=
EXTT8=
EXTT9=
EXTT10=
EXTT11=
PLAYORDER=
